<svg width="21" height="22" viewBox="0 0 21 22" fill="none" xmlns="http://www.w3.org/2000/svg">
<path d="M10.5002 12.6C7.0562 12.6 4.2002 9.744 4.2002 6.3C4.2002 2.856 7.0562 0 10.5002 0C13.9442 0 16.8002 2.856 16.8002 6.3C16.8002 9.744 13.9442 12.6 10.5002 12.6ZM10.5002 1.68C7.9802 1.68 5.8802 3.78 5.8802 6.3C5.8802 8.82 7.9802 10.92 10.5002 10.92C13.0202 10.92 15.1202 8.82 15.1202 6.3C15.1202 3.78 13.0202 1.68 10.5002 1.68Z" fill="black"/>
<path d="M21 21.4199H19.32C19.32 16.5479 15.372 12.5999 10.5 12.5999C5.628 12.5999 1.68 16.5479 1.68 21.4199H0C0 15.6239 4.704 10.9199 10.5 10.9199C16.296 10.9199 21 15.6239 21 21.4199Z" fill="black"/>
</svg>
