<svg width="18" height="18" viewBox="0 0 18 18" fill="none" xmlns="http://www.w3.org/2000/svg">
<path d="M8.9198 8.87772L13.8404 3.99598C14.0763 3.76303 14.0763 3.38592 13.8404 3.15356C13.6051 2.9206 13.2229 2.9206 12.9875 3.15356L8.07119 8.03113L3.10937 3.08086C2.87405 2.84553 2.49185 2.84553 2.25654 3.08086C2.02123 3.31678 2.02123 3.69865 2.25654 3.93398L7.21474 8.88069L2.23862 13.8173C2.00331 14.0502 2.00331 14.4273 2.23862 14.6597C2.47393 14.8926 2.85613 14.8926 3.09144 14.6597L8.06335 9.72728L13.0054 14.6579C13.2407 14.8932 13.6229 14.8932 13.8582 14.6579C14.0936 14.422 14.0936 14.0401 13.8582 13.8048L8.9198 8.87772Z" fill="black"/>
</svg>
