<svg width="20" height="20" viewBox="0 0 20 20" fill="none" xmlns="http://www.w3.org/2000/svg">
<g clip-path="url(#clip0_423_599)">
<path d="M19.926 9.76325C19.7685 9.53406 15.9834 4.16648 9.99999 4.16648C4.86573 4.16648 0.290658 9.50324 0.0981549 9.73075C-0.0326674 9.88575 -0.0326674 10.1133 0.0981549 10.2691C0.290658 10.4966 4.86573 15.8333 9.99999 15.8333C15.1342 15.8333 19.7093 10.4966 19.9018 10.2691C20.0226 10.1258 20.0335 9.91825 19.926 9.76325ZM9.99999 15C5.8841 15 1.97068 11.0749 0.976528 9.99993C1.96904 8.92409 5.87828 4.99985 9.99999 4.99985C14.8159 4.99985 18.2151 8.91909 19.0451 9.97743C18.0868 11.0183 14.1509 15 9.99999 15Z" fill="black" fill-opacity="0.36"/>
<g opacity="0.5">
<path d="M10 6.6666C8.16165 6.6666 6.66663 8.16162 6.66663 9.99997C6.66663 11.8383 8.16165 13.3333 10 13.3333C11.8384 13.3333 13.3334 11.8383 13.3334 9.99997C13.3334 8.16162 11.8384 6.6666 10 6.6666ZM10 12.5001C8.62166 12.5001 7.49996 11.3784 7.49996 10C7.49996 8.62167 8.62166 7.49997 10 7.49997C11.3783 7.49997 12.5 8.62167 12.5 10C12.5 11.3784 11.3783 12.5001 10 12.5001Z" fill="black"/>
</g>
</g>
<defs>
<clipPath id="clip0_423_599">
<rect width="20" height="20" fill="white"/>
</clipPath>
</defs>
</svg>
