<svg width="20" height="20" viewBox="0 0 20 20" fill="none" xmlns="http://www.w3.org/2000/svg">
<g clip-path="url(#clip0_423_618)">
<path d="M4.2108 11.4821L3.54944 13.9511L1.13217 14.0022C0.409762 12.6623 0 11.1293 0 9.50016C0 7.92483 0.383117 6.43926 1.06222 5.1312H1.06274L3.21479 5.52574L4.15751 7.66488C3.9602 8.24011 3.85266 8.85761 3.85266 9.50016C3.85273 10.1975 3.97905 10.8657 4.2108 11.4821Z" fill="#FBBB00"/>
<path d="M18.834 7.72534C18.9431 8.30002 19 8.89351 19 9.50006C19 10.1802 18.9285 10.8436 18.7923 11.4836C18.3298 13.6613 17.1214 15.5628 15.4474 16.9085L15.4469 16.908L12.7363 16.7697L12.3527 14.3748C13.4634 13.7234 14.3315 12.704 14.7888 11.4836H9.70885V7.72534H14.8629H18.834Z" fill="#518EF8"/>
<path d="M15.4469 16.9078L15.4474 16.9083C13.8194 18.2169 11.7513 18.9999 9.49999 18.9999C5.88216 18.9999 2.73674 16.9778 1.13216 14.002L4.21079 11.4819C5.01306 13.623 7.07853 15.1472 9.49999 15.1472C10.5408 15.1472 11.5159 14.8658 12.3526 14.3747L15.4469 16.9078Z" fill="#28B446"/>
<path d="M15.5638 2.18708L12.4862 4.70666C11.6203 4.16538 10.5967 3.8527 9.5 3.8527C7.02372 3.8527 4.91962 5.4468 4.15754 7.66472L1.06273 5.13104H1.06221C2.64329 2.08269 5.82839 0 9.5 0C11.805 0 13.9185 0.821082 15.5638 2.18708Z" fill="#F14336"/>
</g>
<defs>
<clipPath id="clip0_423_618">
<rect width="19" height="19" fill="white"/>
</clipPath>
</defs>
</svg>
