<svg width="91" height="87" viewBox="0 0 91 87" fill="none" xmlns="http://www.w3.org/2000/svg">
<path d="M3.05326 21.509H0.00163072C-0.0332135 18.6977 0.490654 15.9074 1.54287 13.2999C2.59509 10.6924 4.15472 8.31951 6.13138 6.31882C8.10803 4.31813 10.4624 2.72941 13.058 1.64474C15.6536 0.560065 18.4388 0.00101852 21.2522 1.39042e-06C24.0656 -0.00101574 26.8513 0.556016 29.4476 1.63881C32.044 2.72161 34.3995 4.30863 36.3777 6.30789C38.3558 8.30715 39.9171 10.6789 40.9712 13.2856C42.0253 15.8924 42.5512 18.6823 42.5184 21.4936H39.4668C39.4971 19.0843 39.0483 16.6931 38.1464 14.4585C37.2445 12.224 35.9076 10.1907 34.2131 8.47661C32.5186 6.76255 30.5003 5.40187 28.2754 4.47352C26.0505 3.54518 23.6633 3.06766 21.2522 3.06868C18.8412 3.0697 16.4543 3.54923 14.2302 4.47945C12.0061 5.40968 9.98898 6.77206 8.29595 8.48755C6.60291 10.203 5.26766 12.2375 4.36768 14.4728C3.46771 16.7081 3.02092 19.0997 3.05326 21.509Z" fill="#1A1A18"/>
<path d="M3.0564 21.4475H0.00476074V61.775H3.0564V21.4475Z" fill="#1A1A18"/>
<path d="M42.5184 21.4506H39.4668V61.778H42.5184V21.4506Z" fill="#1A1A18"/>
<path d="M51.5103 21.4998H48.4556C48.5204 15.9097 50.7874 10.5703 54.7651 6.63935C58.7428 2.70836 64.1106 0.502551 69.7048 0.500124C75.299 0.497697 80.6688 2.69885 84.6499 6.62638C88.631 10.5539 90.9026 15.8913 90.9723 21.4814H87.9207C87.9182 16.6562 85.9979 12.0297 82.582 8.61955C79.1661 5.2094 74.5346 3.29497 69.7063 3.29742C64.8779 3.29986 60.2483 5.21898 56.8359 8.63259C53.4235 12.0462 51.5078 16.6747 51.5103 21.4998Z" fill="#1A1A18"/>
<path d="M90.9723 21.4291H87.9207V61.7811H90.9723V21.4291Z" fill="#1A1A18"/>
<path d="M51.5072 21.4352H48.4556V61.778H51.5072V21.4352Z" fill="#1A1A18"/>
<path d="M22.7658 77.0046C22.0514 77.0046 21.353 76.7929 20.759 76.3962C20.1651 75.9994 19.7022 75.4356 19.4289 74.7759C19.1557 74.1163 19.0843 73.3904 19.2239 72.6903C19.3635 71.9901 19.7078 71.347 20.2132 70.8424C20.7186 70.3378 21.3624 69.9943 22.0631 69.8554C22.7639 69.7164 23.4901 69.7884 24.15 70.062C24.8099 70.3356 25.3737 70.7987 25.7702 71.3926C26.1666 71.9865 26.3779 72.6846 26.3773 73.3986C26.3765 74.3552 25.9956 75.2724 25.3184 75.9486C24.6412 76.6248 23.7231 77.0046 22.7658 77.0046ZM22.7658 70.5488C22.1994 70.5488 21.6456 70.7166 21.1747 71.0311C20.7037 71.3456 20.3366 71.7926 20.1198 72.3156C19.9031 72.8386 19.8463 73.414 19.9569 73.9692C20.0674 74.5244 20.3401 75.0344 20.7407 75.4347C21.1412 75.8349 21.6515 76.1075 22.2071 76.218C22.7626 76.3284 23.3385 76.2717 23.8618 76.0551C24.3851 75.8385 24.8324 75.4716 25.1471 75.001C25.4618 74.5303 25.6298 73.9769 25.6298 73.4109C25.631 73.0341 25.5578 72.6608 25.4145 72.3123C25.2711 71.9638 25.0604 71.647 24.7944 71.38C24.5284 71.113 24.2123 70.9011 23.8642 70.7563C23.5161 70.6116 23.1428 70.5369 22.7658 70.5365V70.5488Z" fill="#1A1A18"/>
<path d="M39.3898 77.0077H34.4155V69.7894H35.1569V76.2668H39.3898V77.0077Z" fill="#1A1A18"/>
<path d="M0.140039 72.4455V72.4179C0.12286 72.064 0.177762 71.7104 0.301416 71.3784C0.42507 71.0465 0.6149 70.743 0.859397 70.4866C1.1039 70.2301 1.39797 70.0259 1.72378 69.8864C2.0496 69.7469 2.40038 69.6749 2.75485 69.6749C3.10931 69.6749 3.46009 69.7469 3.78591 69.8864C4.11173 70.0259 4.4058 70.2301 4.6503 70.4866C4.89479 70.743 5.08462 71.0465 5.20828 71.3784C5.33193 71.7104 5.38683 72.064 5.36965 72.4179H4.61597C4.62619 72.1662 4.58542 71.9151 4.49611 71.6796C4.4068 71.4442 4.27079 71.2291 4.09624 71.0475C3.9217 70.8658 3.71222 70.7213 3.48039 70.6226C3.24856 70.5239 2.99916 70.473 2.74716 70.473C2.49515 70.473 2.24575 70.5239 2.01392 70.6226C1.78209 70.7213 1.57261 70.8658 1.39807 71.0475C1.22353 71.2291 1.08751 71.4442 0.998203 71.6796C0.908891 71.9151 0.86812 72.1662 0.878338 72.4179L0.140039 72.4455Z" fill="#1A1A18"/>
<path d="M0.887542 72.4117H0.140015V76.9831H0.887542V72.4117Z" fill="#1A1A18"/>
<path d="M5.37277 72.4117H4.62524V76.9831H5.37277V72.4117Z" fill="#1A1A18"/>
<path d="M10.787 72.4517L10.4117 72.4302C10.4219 72.1786 10.3811 71.9275 10.2918 71.692C10.2025 71.4565 10.0665 71.2415 9.89195 71.0598C9.71741 70.8782 9.50793 70.7337 9.2761 70.6349C9.04427 70.5362 8.79486 70.4853 8.54286 70.4853C8.29086 70.4853 8.04145 70.5362 7.80962 70.6349C7.57779 70.7337 7.36831 70.8782 7.19377 71.0598C7.01923 71.2415 6.88322 71.4565 6.79391 71.692C6.70459 71.9275 6.66382 72.1786 6.67404 72.4302H5.92651C5.9591 71.7591 6.24881 71.1263 6.73561 70.6628C7.22241 70.1994 7.86898 69.9409 8.54132 69.9409C9.21366 69.9409 9.86023 70.1994 10.347 70.6628C10.8338 71.1263 11.1235 71.7591 11.1561 72.4302L10.787 72.4517Z" fill="#1A1A18"/>
<path d="M11.1591 72.424H10.4116V76.9954H11.1591V72.424Z" fill="#1A1A18"/>
<path d="M6.67404 72.424H5.92651V76.9954H6.67404V72.424Z" fill="#1A1A18"/>
<path d="M65.338 77.0108H60.3237V69.7679H61.0682V76.2668H65.338V77.0108Z" fill="#1A1A18"/>
<path d="M65.3195 72.9989H60.6836V73.7429H65.3195V72.9989Z" fill="#1A1A18"/>
<path d="M65.3195 69.7679H60.6836V70.5119H65.3195V69.7679Z" fill="#1A1A18"/>
<path d="M90.8923 69.7679H85.8811V70.5181H90.8923V69.7679Z" fill="#1A1A18"/>
<path d="M88.7605 69.8325H88.0099V76.9954H88.7605V69.8325Z" fill="#1A1A18"/>
<path d="M8.99306 82.1766L5.89221 82.1815L5.89338 82.9223L8.99423 82.9175L8.99306 82.1766Z" fill="#1A1A18"/>
<path fill-rule="evenodd" clip-rule="evenodd" d="M8.44905 81.5697C8.32995 81.1937 8.13081 80.8478 7.8653 80.556C7.5998 80.2641 7.27421 80.0331 6.91093 79.8789C6.75463 79.8096 6.59181 79.7561 6.42488 79.7191C6.21399 79.6702 5.99841 79.6445 5.78194 79.6422C5.03046 79.6446 4.31045 79.9441 3.77907 80.4751C3.24769 81.0061 2.94808 81.7256 2.94565 82.4766C2.94182 83.2276 3.23608 83.9495 3.76393 84.4841C4.29514 85.0149 5.01537 85.3134 5.76656 85.3141C6.52018 85.3149 7.24334 85.017 7.77739 84.4856C8.31143 83.9542 8.61272 83.2328 8.61517 82.4797V82.1723H9.35654V82.4797C9.35614 82.9497 9.26299 83.4151 9.08244 83.8491C8.90189 84.2831 8.63747 84.6773 8.30432 85.0091C7.97116 85.3409 7.57581 85.6038 7.14088 85.7827C6.70595 85.9617 6.23998 86.0532 5.76964 86.0519C5.30024 86.0526 4.83537 85.9603 4.40187 85.7803C3.96838 85.6004 3.57486 85.3364 3.24404 85.0036C2.57438 84.3329 2.19824 83.4241 2.19812 82.4766C2.19975 81.53 2.57698 80.6227 3.24708 79.9536C3.91718 79.2845 4.82546 78.9083 5.77272 78.9075C6.04488 78.9071 6.31623 78.937 6.58177 78.9966C6.79227 79.0466 6.9981 79.1145 7.19702 79.1995C7.69555 79.4117 8.13838 79.7359 8.49106 80.147C8.84373 80.5581 9.09675 81.045 9.23041 81.5697H8.44905Z" fill="#1A1A18"/>
<path d="M50.5781 73.2633V72.5378C50.849 72.5378 51.1088 72.4302 51.3003 72.2388C51.4918 72.0474 51.5994 71.7878 51.5994 71.5171C51.5994 71.2464 51.4918 70.9868 51.3003 70.7954C51.1088 70.604 50.849 70.4965 50.5781 70.4965V69.7679C50.814 69.758 51.0494 69.7959 51.2702 69.8793C51.491 69.9626 51.6926 70.0898 51.863 70.253C52.0333 70.4163 52.1689 70.6123 52.2615 70.8293C52.3541 71.0462 52.4019 71.2797 52.4019 71.5156C52.4019 71.7515 52.3541 71.9849 52.2615 72.2019C52.1689 72.4188 52.0333 72.6149 51.863 72.7781C51.6926 72.9414 51.491 73.0685 51.2702 73.1519C51.0494 73.2353 50.814 73.2732 50.5781 73.2633Z" fill="#1A1A18"/>
<path d="M50.5781 69.7679H47.6987V70.4935H50.5781V69.7679Z" fill="#1A1A18"/>
<path d="M50.5781 72.5378H47.6987V73.2633H50.5781V72.5378Z" fill="#1A1A18"/>
<path d="M48.0741 69.7709H47.3328V77.0015H48.0741V69.7709Z" fill="#1A1A18"/>
<path d="M50.5781 77.0046V76.2822C50.7159 76.2898 50.8538 76.2692 50.9834 76.2217C51.113 76.1742 51.2315 76.1008 51.3318 76.006C51.432 75.9112 51.5119 75.797 51.5664 75.6703C51.621 75.5436 51.6491 75.4071 51.6491 75.2692C51.6491 75.1313 51.621 74.9948 51.5664 74.8681C51.5119 74.7414 51.432 74.6272 51.3318 74.5324C51.2315 74.4376 51.113 74.3642 50.9834 74.3167C50.8538 74.2692 50.7159 74.2487 50.5781 74.2563V73.5338C50.8123 73.524 51.0461 73.5616 51.2654 73.6443C51.4847 73.7271 51.6849 73.8533 51.8541 74.0155C52.0233 74.1776 52.1579 74.3722 52.2499 74.5877C52.3419 74.8031 52.3893 75.035 52.3893 75.2692C52.3893 75.5035 52.3419 75.7353 52.2499 75.9507C52.1579 76.1662 52.0233 76.3609 51.8541 76.523C51.6849 76.6851 51.4847 76.8113 51.2654 76.8941C51.0461 76.9769 50.8123 77.0145 50.5781 77.0046Z" fill="#1A1A18"/>
<path d="M50.5781 73.5338H47.6987V74.2562H50.5781V73.5338Z" fill="#1A1A18"/>
<path d="M50.5781 76.2822H47.6987V77.0046H50.5781V76.2822Z" fill="#1A1A18"/>
<path d="M39.3776 86.0704H34.4064V78.8522H35.1477V85.3295H39.3776V86.0704Z" fill="#1A1A18"/>
<path d="M24.51 81.4745V81.453C24.51 80.9613 24.3146 80.4898 23.9667 80.1422C23.6189 79.7945 23.147 79.5992 22.6551 79.5992C22.1631 79.5992 21.6913 79.7945 21.3434 80.1422C20.9955 80.4898 20.8001 80.9613 20.8001 81.453H20.0587C20.0587 80.7648 20.3323 80.1049 20.8192 79.6183C21.3061 79.1317 21.9665 78.8583 22.6551 78.8583C23.3437 78.8583 24.0041 79.1317 24.491 79.6183C24.9779 80.1049 25.2514 80.7648 25.2514 81.453L24.51 81.4745Z" fill="#1A1A18"/>
<path d="M25.2514 81.4499H24.51V85.9874H25.2514V81.4499Z" fill="#1A1A18"/>
<path d="M20.8001 81.4499H20.0587V85.9874H20.8001V81.4499Z" fill="#1A1A18"/>
<path d="M24.5865 82.1644L20.6674 82.1705L20.6686 82.936L24.5877 82.9299L24.5865 82.1644Z" fill="#1A1A18"/>
<path d="M52.3378 86.0704H47.3666V78.8522H48.108V85.3295H52.3378V86.0704Z" fill="#1A1A18"/>
<path d="M65.3348 86.0705H60.3206V78.8307H61.065V85.3265H65.3348V86.0705Z" fill="#1A1A18"/>
<path d="M65.3164 82.0617H60.6805V82.8057H65.3164V82.0617Z" fill="#1A1A18"/>
<path d="M65.3164 78.8307H60.6805V79.5746H65.3164V78.8307Z" fill="#1A1A18"/>
<path d="M76.437 73.2633V72.5378C76.7079 72.5378 76.9677 72.4302 77.1592 72.2388C77.3507 72.0474 77.4583 71.7878 77.4583 71.5171C77.4583 71.2464 77.3507 70.9868 77.1592 70.7954C76.9677 70.604 76.7079 70.4965 76.437 70.4965V69.7679C76.6728 69.758 76.9082 69.7959 77.129 69.8793C77.3498 69.9626 77.5515 70.0898 77.7219 70.253C77.8922 70.4163 78.0278 70.6123 78.1204 70.8293C78.213 71.0462 78.2608 71.2797 78.2608 71.5156C78.2608 71.7515 78.213 71.9849 78.1204 72.2019C78.0278 72.4188 77.8922 72.6149 77.7219 72.7781C77.5515 72.9414 77.3498 73.0685 77.129 73.1519C76.9082 73.2353 76.6728 73.2732 76.437 73.2633Z" fill="#1A1A18"/>
<path d="M76.4402 69.7679H73.5608V70.4935H76.4402V69.7679Z" fill="#1A1A18"/>
<path d="M76.4402 72.5378H73.5608V73.2633H76.4402V72.5378Z" fill="#1A1A18"/>
<path d="M73.933 69.7709H73.1917V77.0107H73.933V69.7709Z" fill="#1A1A18"/>
<path d="M78.2089 76.9985H77.486V75.2124C77.4671 74.949 77.3478 74.7029 77.1525 74.525C76.9573 74.3471 76.7012 74.2509 76.437 74.2563V73.5338C76.8881 73.5292 77.3237 73.6985 77.6532 74.0065C77.9826 74.3145 78.1805 74.7376 78.2059 75.1878C78.2089 75.2247 78.2089 76.98 78.2089 76.9985Z" fill="#1A1A18"/>
<path d="M76.4402 73.5338H73.5608V74.2562H76.4402V73.5338Z" fill="#1A1A18"/>
<path d="M76.4309 82.3322V81.5944C76.7018 81.5944 76.9616 81.4869 77.1531 81.2955C77.3446 81.1041 77.4522 80.8444 77.4522 80.5738C77.4522 80.3031 77.3446 80.0435 77.1531 79.8521C76.9616 79.6607 76.7018 79.5531 76.4309 79.5531V78.8245C76.6667 78.8146 76.9021 78.8525 77.1229 78.9359C77.3437 79.0193 77.5454 79.1464 77.7158 79.3097C77.8861 79.4729 78.0217 79.6689 78.1143 79.8859C78.2069 80.1029 78.2547 80.3363 78.2547 80.5722C78.2547 80.8081 78.2069 81.0416 78.1143 81.2585C78.0217 81.4755 77.8861 81.6715 77.7158 81.8348C77.5454 81.998 77.3437 82.1252 77.1229 82.2085C76.9021 82.2919 76.6667 82.3298 76.4309 82.3199V82.3322Z" fill="#1A1A18"/>
<path d="M76.4309 78.8245H73.5515V79.55H76.4309V78.8245Z" fill="#1A1A18"/>
<path d="M76.4309 81.5944H73.5515V82.3199H76.4309V81.5944Z" fill="#1A1A18"/>
<path d="M73.9268 78.8276H73.1854V86.0705H73.9268V78.8276Z" fill="#1A1A18"/>
<path d="M78.2028 86.0551H77.4799V84.2689C77.461 84.0056 77.3417 83.7595 77.1464 83.5816C76.9512 83.4037 76.6951 83.3075 76.4309 83.3129V82.5904C76.882 82.5858 77.3176 82.7551 77.6471 83.0631C77.9765 83.3711 78.1744 83.7942 78.1998 84.2444C78.2028 84.2812 78.2028 86.0366 78.2028 86.0551Z" fill="#1A1A18"/>
<path d="M76.4309 82.5905H73.5515V83.3129H76.4309V82.5905Z" fill="#1A1A18"/>
<path d="M88.5728 82.7903H88.1821V86.0489H88.5728V82.7903Z" fill="#1A1A18"/>
<path d="M88.4036 83.0423C87.7147 83.0415 87.0543 82.7674 86.5675 82.2804C86.0807 81.7933 85.8073 81.133 85.8073 80.4446H86.5486C86.5486 80.9362 86.7441 81.4077 87.0919 81.7554C87.4398 82.103 87.9116 82.2983 88.4036 82.2983C88.8956 82.2983 89.3674 82.103 89.7153 81.7554C90.0631 81.4077 90.2586 80.9362 90.2586 80.4446L91 80.4261V80.4446C90.9991 81.1328 90.7254 81.7926 90.2388 82.2795C89.7521 82.7664 89.0922 83.0407 88.4036 83.0423Z" fill="#1A1A18"/>
<path d="M91 78.8307H90.2587V80.4508H91V78.8307Z" fill="#1A1A18"/>
<path d="M86.5486 78.8276H85.8073V80.4508H86.5486V78.8276Z" fill="#1A1A18"/>
</svg>
