<svg width="41" height="40" viewBox="0 0 41 40" fill="none" xmlns="http://www.w3.org/2000/svg">
<path d="M30.1757 17.0553V17.5553H30.6757H32.5698C33.3933 17.5553 34.0427 18.2052 34.0427 18.98V38.0755C34.0427 38.8502 33.3934 39.5 32.57 39.5H7.40539C6.58005 39.5 5.93262 38.8506 5.93262 38.0755V18.98C5.93262 18.2048 6.58009 17.5553 7.40539 17.5553H9.29892H9.79892V17.0553V11.4284C9.79892 5.96577 14.3572 1.5 19.9879 1.5C25.6165 1.5 30.1757 5.96637 30.1757 11.4284V17.0553ZM26.7309 17.5553H27.2309V17.0553V11.4284C27.2309 7.51227 23.9705 4.34899 19.9878 4.34899C16.0043 4.34899 12.744 7.51224 12.744 11.4284V17.0553V17.5553H13.244H26.7309Z" stroke="black"/>
</svg>
